<?xml version="1.0" encoding="UTF-8" standalone="no"?>
<svg width="270px" height="400px" viewBox="0 0 270 400" version="1.1" xmlns="http://www.w3.org/2000/svg" xmlns:xlink="http://www.w3.org/1999/xlink">
    <!-- Generator: Sketch 39.1 (31720) - http://www.bohemiancoding.com/sketch -->
    <title>Slice 1</title>
    <desc>Created with Sketch.</desc>
    <defs>
        <polygon id="path-1" points="126.27218 134.102357 0 134.102357 0 0.555023635 126.27218 0.555023635 126.27218 134.102357"></polygon>
        <polygon id="path-3" points="269.733881 175.250964 269.733881 0.936939366 0.000400305543 0.936939366 0.000400305543 175.250964 269.733881 175.250964"></polygon>
    </defs>
    <g id="Page-1" stroke="none" stroke-width="1" fill="none" fill-rule="evenodd">
        <g>
            <g id="Group-3" transform="translate(0.000000, 264.858159)">
                <mask id="mask-2" fill="white">
                    <use xlink:href="#path-1"></use>
                </mask>
                <g id="Clip-2"></g>
                <path d="M0.0178135967,39.1464795 L0.0218166521,38.9563343 C0.0218166521,38.9563343 0.0198151244,38.8462503 0.0138105412,38.6761205 C0.0138105412,38.8322396 -0.000200152768,38.9903603 -0.000200152768,39.1464795 C-0.000200152768,89.5009137 55.6823008,134.102957 126.27218,134.102957 L126.27218,56.0713978 C126.27218,56.0713978 52.1976411,54.6463101 19.2625026,0.555023635 C18.9983009,0.775191683 18.7581176,1.00536737 18.4999205,1.22753695 C9.51105954,10.3585064 3.64458181,20.1099494 1.27076995,29.867397 C0.508187886,33.0238062 0.0998762329,36.118168 0.0178135967,39.1464795" id="Fill-1" fill="#FFD900" mask="url(#mask-2)"></path>
            </g>
            <path d="M48.1913832,154.654244 L48.1913832,154.654244 C37.8234697,146.325887 28.2881916,134.640968 22.5838376,122.960052 C11.2772076,133.183856 3.98564214,144.336368 1.27157056,155.50089 C0.508988498,158.6593 0.0986753163,161.753662 0.0186142077,164.779972 L0.0226172632,164.589827 C0.0226172632,164.589827 0.0186142077,164.473738 0.0146111523,164.295603 C0.0146111523,164.455725 0.0186142077,164.621852 0.0186142077,164.779972 C0.0186142077,171.194869 2.30235733,185.161529 5.52681848,193.968251 C12.9865123,179.120918 27.1112933,165.520537 48.1913832,154.654244" id="Fill-4" fill="#FFD900"></path>
            <path d="M171.22349,216.247456 C170.615026,216.255462 170.00456,216.267471 169.392093,216.27948 C167.368548,216.319511 165.306974,216.387563 163.225386,216.469626 C162.472811,216.499648 161.732246,216.523667 160.973667,216.559694 C158.337655,216.683789 155.663614,216.835905 152.93353,217.028052 C152.845463,217.034056 152.761399,217.038059 152.673332,217.044064 C133.190461,218.443132 115.290798,221.305317 99.1384698,225.30637 C99.0323888,225.33239 98.9203033,225.356409 98.8122208,225.38443 C98.7201505,225.406447 98.6320833,225.430465 98.540013,225.454483 C94.8752158,226.371183 91.3084934,227.34993 87.8258351,228.380717 C86.8370805,228.67294 85.864338,228.975171 84.889594,229.277401 C75.5084336,232.179617 66.8258064,235.484139 58.8797414,239.116912 C57.7789011,239.621297 56.6720563,240.12368 55.5992374,240.640074 C51.3539972,242.679631 47.3569463,244.823267 43.5720574,247.036957 C47.226847,250.51361 66.9979378,267.708735 110.855413,278.675105 C148.880437,288.18036 224.079834,294.391101 261.266218,268.289178 C267.028616,264.244091 269.820747,259.242273 269.70666,253.956238 C269.704658,253.772098 269.694651,253.587957 269.686645,253.403816 C268.637844,235.824399 235.49855,215.364782 171.22349,216.247456" id="Fill-6" fill="#FFD900"></path>
            <g id="Group-10" transform="translate(0.000000, 128.754275)">
                <mask id="mask-4" fill="white">
                    <use xlink:href="#path-3"></use>
                </mask>
                <g id="Clip-9"></g>
                <path d="M269.728276,44.3670642 C269.131821,25.1163707 224.613842,-3.89377201 147.799211,1.62243836 C105.25674,4.67676966 72.2175217,13.515516 48.1911831,25.898968 C27.1110932,36.7672635 12.9863121,50.3656428 5.52661832,65.2129753 C4.06550309,68.1211951 2.8385666,71.071447 1.88583941,74.0617294 C0.997161107,76.8558621 0.000400305543,82.1679166 0.000400305543,90.42622 L0.000400305543,174.246198 C0.00640488868,174.478375 0.0104079441,174.644502 0.0144109995,174.780605 C0.100476691,172.222653 0.508788345,169.128291 1.2713704,165.971882 C3.64318074,156.212433 9.51166,146.462991 18.500521,137.332022 C20.7162121,135.080303 23.1160439,132.866614 25.7060207,130.700961 C30.3695803,126.801985 35.6235905,123.073138 41.4520393,119.532436 C42.1465694,119.112115 42.8631163,118.6998 43.5736586,118.283483 C47.356546,116.069793 51.3535968,113.926157 55.5988371,111.884599 C56.671656,111.368204 57.7785008,110.867822 58.8813426,110.363438 C62.8523736,108.54605 67.0095466,106.812727 71.3468572,105.169473 C75.6821662,103.526219 80.1996143,101.975035 84.8891937,100.521926 C85.8639377,100.221697 86.8366802,99.9194659 87.8254348,99.6252413 C91.3080931,98.5964561 94.8748154,97.6157075 98.5396127,96.6990078 C101.157611,96.0525144 103.205174,95.5701462 105.278757,95.1057917 C119.791834,91.8593138 135.62592,89.5135233 152.672931,88.2905899 C155.663214,88.0804295 158.337255,87.9283134 160.973267,87.8062202 C161.731846,87.7701927 162.474412,87.7461743 163.224985,87.7161514 C165.308576,87.6320873 167.368148,87.5660369 169.391692,87.5260063 C170.00416,87.5139971 170.616627,87.501988 171.22309,87.4939819 C235.49815,86.6093066 268.637444,107.070924 269.686244,124.648341 C269.696252,124.834483 269.704258,125.018623 269.708261,125.202764 C269.710263,125.382901 269.73228,125.56504 269.728276,125.743176 L269.728276,44.3670642 Z" id="Fill-8" fill="#3FB367" mask="url(#mask-4)"></path>
            </g>
            <path d="M1.88603956,63.5917379 C0.99736126,66.3878721 0.000600458318,71.6979251 0.000600458318,79.9562285 L0.000600458318,163.778208 C0.00660504146,164.002379 0.0106080969,164.162501 0.0146111523,164.296603 C0.0186142077,164.472738 0.0226172632,164.590828 0.0226172632,164.590828 L0.0186142077,164.780973 C0.0986753163,161.752662 0.508988498,158.6583 1.27157056,155.501891 C3.98564214,144.337369 11.2772076,133.184856 22.5838376,122.959051 C23.5966107,122.042352 24.629399,121.131657 25.7082224,120.230969 C30.3677789,116.331993 35.6237907,112.605149 41.4522394,109.062444 C45.8475943,106.400413 50.5551874,103.838457 55.5970358,101.416609 C77.4557199,90.9045851 107.124365,84.5117056 138.065982,83.4528974 L138.065982,0.00120091663 C63.0327112,1.42628865 12.8103778,29.2675391 1.88603956,63.5917379" id="Fill-11" fill="#3FB367"></path>
        </g>
    </g>
</svg>
