<?xml version="1.0" encoding="UTF-8" standalone="no"?>
<svg width="270px" height="420px" viewBox="0 0 270 420" version="1.1" xmlns="http://www.w3.org/2000/svg" xmlns:xlink="http://www.w3.org/1999/xlink">
    <!-- Generator: Sketch 39.1 (31720) - http://www.bohemiancoding.com/sketch -->
    <title>Slice 1</title>
    <desc>Created with Sketch.</desc>
    <defs>
        <polygon id="path-1" points="60.4059323 120.704166 0 120.704166 0 0.0208532339 120.811865 0.0208532339 120.811865 120.704166 60.4059323 120.704166"></polygon>
        <polygon id="path-3" points="0 0.697222952 0 121.380536 120.811865 121.380536 120.811865 0.697222952 5.94350938e-20 0.697222952"></polygon>
    </defs>
    <g id="Page-1" stroke="none" stroke-width="1" fill="none" fill-rule="evenodd">
        <g>
            <path d="M251.77778,252.720123 L103.119078,401.22226 L17.6888396,315.881995 L123.634615,210.052181 L17.6888396,104.215796 L103.119078,18.8777222 L251.77778,167.382049 C275.367577,190.944811 275.367577,229.15517 251.77778,252.720123" id="Fill-1" fill="#E3004F"></path>
            <g id="Group-5" transform="translate(0.000000, 298.186551)">
                <mask id="mask-2" fill="white">
                    <use xlink:href="#path-1"></use>
                </mask>
                <g id="Clip-4"></g>
                <path d="M60.4098793,120.704166 C93.7706505,120.706357 120.811865,93.6914316 120.811865,60.3679859 C120.809672,27.0401593 93.766265,0.0230436924 60.4054938,0.0208532339 C27.0425297,0.0208532339 -0.000877107171,27.0335879 -0.000877107171,60.363605 C0.00350842868,93.6870507 27.049108,120.701976 60.4098793,120.704166" id="Fill-3" fill="#F08B32" mask="url(#mask-2)"></path>
            </g>
            <g id="Group-8" transform="translate(0.000000, 0.513137)">
                <mask id="mask-4" fill="white">
                    <use xlink:href="#path-3"></use>
                </mask>
                <g id="Clip-7"></g>
                <path d="M60.4098793,0.697222952 C93.7706505,0.695032493 120.811865,27.7077672 120.811865,61.0312129 C120.809672,94.3612299 93.766265,121.376155 60.4054938,121.380536 C27.0425297,121.380536 -0.000877107171,94.3678013 -0.000877107171,61.0377842 C0.00131566076,27.7143385 27.049108,0.697222952 60.4098793,0.697222952" id="Fill-6" fill="#F08B32" mask="url(#mask-4)"></path>
            </g>
        </g>
    </g>
</svg>
